<mxfile host="app.diagrams.net" agent="Mozilla/5.0 (Windows NT 10.0; Win64; x64) AppleWebKit/537.36 (KHTML, like Gecko) Chrome/131.0.0.0 Safari/537.36" version="24.9.0">
  <diagram name="Page-1" id="cBh-m0aAiKL9-VtsOXk8">
    <mxGraphModel dx="1275" dy="903" grid="0" gridSize="10" guides="1" tooltips="1" connect="1" arrows="1" fold="1" page="0" pageScale="1" pageWidth="1920" pageHeight="1200" math="0" shadow="0">
      <root>
        <mxCell id="0" />
        <mxCell id="1" parent="0" />
        <mxCell id="Sk_Th9T35xpgcK09UolX-10" style="edgeStyle=orthogonalEdgeStyle;rounded=0;orthogonalLoop=1;jettySize=auto;html=1;" edge="1" parent="1" source="Sk_Th9T35xpgcK09UolX-4" target="Sk_Th9T35xpgcK09UolX-7">
          <mxGeometry relative="1" as="geometry" />
        </mxCell>
        <mxCell id="Sk_Th9T35xpgcK09UolX-4" value="Cửa Hàng" style="rounded=0;whiteSpace=wrap;html=1;" vertex="1" parent="1">
          <mxGeometry x="116" y="-339" width="120" height="59" as="geometry" />
        </mxCell>
        <mxCell id="Sk_Th9T35xpgcK09UolX-14" style="edgeStyle=orthogonalEdgeStyle;rounded=0;orthogonalLoop=1;jettySize=auto;html=1;entryX=1;entryY=0.5;entryDx=0;entryDy=0;" edge="1" parent="1" source="Sk_Th9T35xpgcK09UolX-6" target="Sk_Th9T35xpgcK09UolX-12">
          <mxGeometry relative="1" as="geometry" />
        </mxCell>
        <mxCell id="Sk_Th9T35xpgcK09UolX-6" value="Nhân&amp;nbsp; Viên" style="rounded=0;whiteSpace=wrap;html=1;" vertex="1" parent="1">
          <mxGeometry x="116" y="-99" width="118" height="60" as="geometry" />
        </mxCell>
        <mxCell id="Sk_Th9T35xpgcK09UolX-11" style="edgeStyle=orthogonalEdgeStyle;rounded=0;orthogonalLoop=1;jettySize=auto;html=1;" edge="1" parent="1" source="Sk_Th9T35xpgcK09UolX-7">
          <mxGeometry relative="1" as="geometry">
            <mxPoint x="176" y="-101.79307819234907" as="targetPoint" />
          </mxGeometry>
        </mxCell>
        <mxCell id="Sk_Th9T35xpgcK09UolX-7" value="có" style="rhombus;whiteSpace=wrap;html=1;" vertex="1" parent="1">
          <mxGeometry x="116.5" y="-239" width="119" height="80" as="geometry" />
        </mxCell>
        <mxCell id="Sk_Th9T35xpgcK09UolX-15" style="edgeStyle=orthogonalEdgeStyle;rounded=0;orthogonalLoop=1;jettySize=auto;html=1;entryX=1;entryY=0.5;entryDx=0;entryDy=0;" edge="1" parent="1" source="Sk_Th9T35xpgcK09UolX-12">
          <mxGeometry relative="1" as="geometry">
            <mxPoint x="-82" y="-69.5" as="targetPoint" />
          </mxGeometry>
        </mxCell>
        <mxCell id="Sk_Th9T35xpgcK09UolX-12" value="Nhập" style="rhombus;whiteSpace=wrap;html=1;" vertex="1" parent="1">
          <mxGeometry x="-21" y="-109" width="80" height="80" as="geometry" />
        </mxCell>
        <mxCell id="Sk_Th9T35xpgcK09UolX-23" style="edgeStyle=orthogonalEdgeStyle;rounded=0;orthogonalLoop=1;jettySize=auto;html=1;entryX=0.5;entryY=1;entryDx=0;entryDy=0;" edge="1" parent="1" source="Sk_Th9T35xpgcK09UolX-16" target="Sk_Th9T35xpgcK09UolX-21">
          <mxGeometry relative="1" as="geometry" />
        </mxCell>
        <mxCell id="Sk_Th9T35xpgcK09UolX-16" value="Nhà Cung Cấp" style="rounded=0;whiteSpace=wrap;html=1;" vertex="1" parent="1">
          <mxGeometry x="-204" y="157" width="120" height="60" as="geometry" />
        </mxCell>
        <mxCell id="Sk_Th9T35xpgcK09UolX-17" value="Thuốc" style="rounded=0;whiteSpace=wrap;html=1;" vertex="1" parent="1">
          <mxGeometry x="-204" y="-103" width="120" height="60" as="geometry" />
        </mxCell>
        <mxCell id="Sk_Th9T35xpgcK09UolX-22" style="edgeStyle=orthogonalEdgeStyle;rounded=0;orthogonalLoop=1;jettySize=auto;html=1;entryX=0.5;entryY=1;entryDx=0;entryDy=0;" edge="1" parent="1" source="Sk_Th9T35xpgcK09UolX-21" target="Sk_Th9T35xpgcK09UolX-17">
          <mxGeometry relative="1" as="geometry" />
        </mxCell>
        <mxCell id="Sk_Th9T35xpgcK09UolX-21" value="Cung Cấp" style="rhombus;whiteSpace=wrap;html=1;" vertex="1" parent="1">
          <mxGeometry x="-184" y="17" width="80" height="80" as="geometry" />
        </mxCell>
      </root>
    </mxGraphModel>
  </diagram>
</mxfile>
